<?xml version="1.0" standalone="no"?><!DOCTYPE svg PUBLIC "-//W3C//DTD SVG 1.1//EN" "http://www.w3.org/Graphics/SVG/1.1/DTD/svg11.dtd"><svg t="1702276217343" class="icon" viewBox="0 0 1024 1024" version="1.1" xmlns="http://www.w3.org/2000/svg" p-id="1594" xmlns:xlink="http://www.w3.org/1999/xlink" width="200" height="200"><path d="M180.313043 647.791304c-8.904348-11.130435-8.904348-28.93913 2.226087-40.069565l129.113044-138.017391c26.713043-26.713043 66.782609-26.713043 91.269565 2.226087l126.886957 151.373913c4.452174 4.452174 8.904348 4.452174 13.356521 0l75.686957-75.686957c24.486957-24.486957 62.330435-24.486957 86.817391 0l135.791305 142.469566c11.130435 11.130435 11.130435 26.713043 2.226087 40.069565-11.130435 15.582609-33.391304 15.582609-46.747827 2.226087l-129.113043-133.565218c-4.452174-4.452174-8.904348-4.452174-13.356522 0L578.782609 674.504348c-26.713043 26.713043-64.556522 24.486957-89.043479-4.452174l-126.886956-151.373913c-4.452174-4.452174-8.904348-4.452174-13.356522 0l-122.434782 131.33913c-13.356522 13.356522-35.617391 13.356522-46.747827-2.226087z m22.26087 26.713044M616.626087 336.13913c0 28.93913 24.486957 53.426087 53.426087 53.426087 28.93913 0 53.426087-24.486957 53.426087-53.426087 0-28.93913-24.486957-53.426087-53.426087-53.426087-28.93913 0-53.426087 24.486957-53.426087 53.426087z m0 0" p-id="1595"></path><path d="M845.913043 914.921739H178.086957c-86.817391 0-155.826087-69.008696-155.826087-153.6V267.130435c0-84.591304 69.008696-153.6 155.826087-153.6h667.826086c86.817391 0 155.826087 69.008696 155.826087 153.6v494.191304c0 84.591304-69.008696 153.6-155.826087 153.6zM180.313043 175.86087c-51.2 0-93.495652 42.295652-93.495652 93.495652v494.191304c0 51.2 42.295652 93.495652 93.495652 93.495652h667.826087c51.2 0 93.495652-42.295652 93.495653-93.495652V267.130435c0-51.2-42.295652-93.495652-93.495653-93.495652h-667.826087z" fill="#B3B8C8" p-id="1596"></path></svg>
