<?xml version="1.0" standalone="no"?><!DOCTYPE svg PUBLIC "-//W3C//DTD SVG 1.1//EN" "http://www.w3.org/Graphics/SVG/1.1/DTD/svg11.dtd"><svg t="1702956266474" class="icon" viewBox="0 0 1331 1024" version="1.1" xmlns="http://www.w3.org/2000/svg" p-id="8235" xmlns:xlink="http://www.w3.org/1999/xlink" width="259.9609375" height="200"><path d="M557.2608 78.08H132.608c-30.9248 0-53.0432 22.9376-53.0432 45.8752v583.168c53.0432-64.256 141.5168-146.944 203.4176-156.1088 154.7776-13.7728 287.488 78.08 384.768 82.688h17.7152l39.7824 73.472L499.7632 1024H110.5408C48.64 1024 0 982.6816 0 932.1472V91.8528C0 41.3184 48.64 0 110.592 0h1110.016C1282.56 0 1331.2 41.3184 1331.2 91.8528v840.2944c0 50.5344-48.64 91.8528-110.592 91.8528H552.8064h44.2368l216.7296-312.2688-61.952-110.1824c92.8768-64.3072 172.544-197.4784 260.9664-197.4784 79.616 0 185.7536 59.6992 238.7968 96.4608V128.512c0-27.5456-26.5216-45.9264-53.0432-45.9264h-561.664L658.944 4.608h-79.5648l-22.1184 73.472zM332.8 409.6c-38.4 0-68.2496-12.8-89.6-38.4C221.8496 345.6 204.8 315.7504 204.8 281.6s12.8-68.2496 34.1504-89.6A135.3216 135.3216 0 0 1 332.8 153.6c34.1504 0 64 12.8 89.6 38.4 21.3504 21.3504 38.4 59.7504 38.4 89.6s-12.8 68.2496-38.4 89.6c-25.6 25.6-59.7504 38.4-89.6 38.4z" fill="#7F8A99" p-id="8236"></path></svg>